<svg xmlns="http://www.w3.org/2000/svg" width="138.328" height="86.803" viewBox="0 0 138.328 86.803">
  <g id="グループ_573" data-name="グループ 573" transform="translate(-146.522 -1753.613)">
    <path id="パス_264" data-name="パス 264" d="M183.236,1770.088c-8.117,9.686-6.2,29.63,13.3,23.127,1.364-4.092.339-8.871-9.142-9.417l19.917-6.957-3.963,21.406c-15.792,8.438-28.875,1.858-31.352-8.651C170.372,1782.7,173.175,1773.738,183.236,1770.088Z" fill="#fff"/>
    <path id="パス_265" data-name="パス 265" d="M210.982,1753.613l-19.553,10.959c-6.506,4.228-8.539,10.734-9.352,13.906l17.52-7.054C205.452,1768.821,209.843,1763.372,210.982,1753.613Z" fill="#fff"/>
    <path id="パス_266" data-name="パス 266" d="M241.515,1771.927c-17.417-8.438-31.775,1.084-31.775,13.922a16.354,16.354,0,0,0,16.332,16.332c6.607.025,9.47-1.1,13.767-3.556l1.522-7.964a18.512,18.512,0,0,1-11.944,4.634c-6.968,0-12.5-4.483-11.94-11.428.582-7.218,9.64-11.631,20.013-6.676Z" fill="#fff"/>
    <g id="グループ_184" data-name="グループ 184">
      <path id="パス_267" data-name="パス 267" d="M175.692,1809.071a2.707,2.707,0,0,0-1.069-.22,1.412,1.412,0,0,0-1.5,1.5,1.366,1.366,0,0,0,1.408,1.478,2.236,2.236,0,0,0,.546-.059v-1.081H174.2v-.653h1.675v2.233a5.224,5.224,0,0,1-1.342.214,1.991,1.991,0,0,1-2.275-2.073,2.056,2.056,0,0,1,2.275-2.215,4.088,4.088,0,0,1,1.217.172Z" fill="#fff"/>
      <path id="パス_268" data-name="パス 268" d="M176.82,1808.269h.9c.891,0,1.954-.03,1.954,1.123a.95.95,0,0,1-.855.962v.012c.225.017.356.243.439.427l.665,1.622h-.926l-.5-1.3c-.119-.309-.226-.428-.576-.428h-.267v1.723h-.832Zm.832,1.77h.273c.41,0,.879-.059.879-.576,0-.5-.464-.541-.879-.541h-.273Z" fill="#fff"/>
      <path id="パス_269" data-name="パス 269" d="M182.5,1808.2a2.147,2.147,0,1,1-2.031,2.132A1.939,1.939,0,0,1,182.5,1808.2Zm0,3.634c.849,0,1.164-.754,1.164-1.5,0-.731-.338-1.479-1.164-1.479s-1.164.748-1.164,1.479C181.334,1811.078,181.649,1811.832,182.5,1811.832Z" fill="#fff"/>
      <path id="パス_270" data-name="パス 270" d="M185.017,1808.269h.873l.772,3.314h.012l.707-3.314h1.128l.73,3.314h.012l.778-3.314h.808l-1.081,4.146h-1.069l-.748-3.315h-.012l-.737,3.315h-1.074Z" fill="#fff"/>
      <path id="パス_271" data-name="パス 271" d="M192.28,1808.922h-1.187v-.653H194.3v.653h-1.188v3.493h-.832Z" fill="#fff"/>
      <path id="パス_272" data-name="パス 272" d="M194.977,1808.269h.831v1.675h1.663v-1.675h.832v4.146h-.832V1810.6h-1.663v1.818h-.831Z" fill="#fff"/>
      <path id="パス_273" data-name="パス 273" d="M204.231,1812.355a4.226,4.226,0,0,1-.945.131,1.991,1.991,0,0,1-2.275-2.073,2.056,2.056,0,0,1,2.275-2.215,2.732,2.732,0,0,1,.938.172l-.059.7a1.713,1.713,0,0,0-.9-.22,1.385,1.385,0,0,0-1.389,1.5,1.365,1.365,0,0,0,1.407,1.478,2.314,2.314,0,0,0,.909-.172Z" fill="#fff"/>
      <path id="パス_274" data-name="パス 274" d="M206.179,1808.269h.938l1.627,4.146h-.92l-.357-.951h-1.68l-.363.951h-.861Zm.457.831h-.012l-.6,1.711h1.212Z" fill="#fff"/>
      <path id="パス_275" data-name="パス 275" d="M209.356,1808.269h1.051c.9,0,1.729.261,1.729,1.253,0,.968-.707,1.319-1.6,1.319h-.35v1.574h-.832Zm.832,1.918h.291c.415,0,.789-.136.789-.617s-.362-.648-.789-.648h-.291Z" fill="#fff"/>
      <path id="パス_276" data-name="パス 276" d="M212.807,1808.269h.831v4.146h-.831Z" fill="#fff"/>
      <path id="パス_277" data-name="パス 277" d="M215.432,1808.922h-1.188v-.653h3.207v.653h-1.188v3.493h-.831Z" fill="#fff"/>
      <path id="パス_278" data-name="パス 278" d="M219.316,1808.269h.939l1.627,4.146h-.92l-.357-.951h-1.681l-.362.951H217.7Zm.458.831h-.012l-.6,1.711h1.212Z" fill="#fff"/>
      <path id="パス_279" data-name="パス 279" d="M222.565,1808.269h.831v3.492h1.61v.654h-2.441Z" fill="#fff"/>
      <path id="パス_280" data-name="パス 280" d="M199.758,1816.016a1.531,1.531,0,0,1,1.6,1.621,1.6,1.6,0,0,1-3.2,0A1.531,1.531,0,0,1,199.758,1816.016Zm0,2.584c.612,0,.772-.547.772-1.058a.78.78,0,1,0-1.538,0C198.992,1818.047,199.152,1818.6,199.758,1818.6Z" fill="#fff"/>
      <path id="パス_281" data-name="パス 281" d="M202.425,1816.669h-.588v-.582h.588v-.427a.936.936,0,0,1,.974-1.04,2.775,2.775,0,0,1,.582.066l-.065.659a.619.619,0,0,0-.345-.107c-.267,0-.35.232-.35.469v.38h.7v.582h-.7v2.477h-.8Z" fill="#fff"/>
      <path id="パス_282" data-name="パス 282" d="M206.113,1818.421a1.078,1.078,0,0,0,.4.071c.541,0,.541-.433.541-.73V1815h.831v3.16a1.044,1.044,0,0,1-1.134,1.057,2.377,2.377,0,0,1-.636-.077Z" fill="#fff"/>
      <path id="パス_283" data-name="パス 283" d="M210.11,1815h.939l1.627,4.146h-.921l-.356-.95h-1.681l-.362.95h-.861Zm.458.832h-.012l-.6,1.71h1.211Z" fill="#fff"/>
      <path id="パス_284" data-name="パス 284" d="M213.288,1815h1.051c.9,0,1.728.262,1.728,1.254,0,.968-.707,1.318-1.6,1.318h-.351v1.574h-.831Zm.831,1.919h.291c.416,0,.79-.137.79-.618s-.362-.647-.79-.647h-.291Z" fill="#fff"/>
      <path id="パス_285" data-name="パス 285" d="M218,1815h.938l1.627,4.146h-.92l-.356-.95h-1.681l-.363.95h-.861Zm.457.832h-.012l-.6,1.71h1.212Z" fill="#fff"/>
      <path id="パス_286" data-name="パス 286" d="M221.205,1815h1.022l1.579,3.1h.012V1815h.8v4.146H223.6l-1.587-3.1H222v3.1h-.8Z" fill="#fff"/>
    </g>
    <path id="パス_287" data-name="パス 287" d="M250.738,1769.8l-5.806,30.646c-1.78,10.837-9.6,11.921-13.779,12.463l-.941,6.192c12.789,0,20.258-7.673,22-15.858l6.657-33.443Z" fill="#fff"/>
    <g id="グループ_189" data-name="グループ 189">
      <g id="グループ_187" data-name="グループ 187">
        <g id="グループ_186" data-name="グループ 186">
          <g id="グループ_185" data-name="グループ 185">
            <path id="パス_288" data-name="パス 288" d="M155.55,1829.963v10.192h-9.028v-10.192Zm-7.994,4.55H154.5v-3.587h-6.948Zm0,.95v3.741H154.5v-3.741Z" fill="#fff"/>
            <path id="パス_289" data-name="パス 289" d="M163.355,1831.531v-2.138h.974v2.138h5.036v.939h-4.514a11.579,11.579,0,0,0,4.633,5.024l-.57.962a13.173,13.173,0,0,1-4.585-5.321v4.252h2.506v.9h-2.506v2.126h-.974v-2.126h-2.483v-.9h2.483v-4.2a13.653,13.653,0,0,1-4.55,5.31l-.594-.938a11.822,11.822,0,0,0,4.621-5.084h-4.478v-.939Z" fill="#fff"/>
            <path id="パス_290" data-name="パス 290" d="M185.1,1839.561v-9.1h9.312v9.1Zm8.231-8.1h-7.15v7.091h7.15Z" fill="#fff"/>
            <path id="パス_291" data-name="パス 291" d="M196.556,1834.881v-1.045h10.18v1.045Z" fill="#fff"/>
            <path id="パス_292" data-name="パス 292" d="M213.59,1835.962a12.611,12.611,0,0,1-5.928,4v-1.093a11.228,11.228,0,0,0,7.116-7.495h-6.557v-1.033h7.946a12.408,12.408,0,0,1-1.841,4.62,10.14,10.14,0,0,0,3.5,3.92v1.223A10.941,10.941,0,0,1,213.59,1835.962Z" fill="#fff"/>
            <path id="パス_293" data-name="パス 293" d="M221.893,1834.905a1.01,1.01,0,1,1-1.01-1.01A1.008,1.008,0,0,1,221.893,1834.905Z" fill="#fff"/>
            <path id="パス_294" data-name="パス 294" d="M231.182,1836.7l.332,3.528H230.4l-.321-3.528H224.97v-1.021h5.012l-.249-2.922h-4.3v-1.01h4.205l-.2-2.138h1.1l.2,2.138H235.3v1.01h-4.466l.262,2.922h4.727v1.021Z" fill="#fff"/>
            <path id="パス_295" data-name="パス 295" d="M243.1,1837.565v-.986a4.646,4.646,0,0,0,2.982-3.147l-5.143.2,1.2,6.639H241.1l-1.188-6.6-2.221.084v-.939l2.043-.071-.309-1.746h1.033l.3,1.71,6.569-.249A5.884,5.884,0,0,1,243.1,1837.565Z" fill="#fff"/>
            <path id="パス_296" data-name="パス 296" d="M253.419,1839.87c-1.865,0-2.851-.654-2.851-2.53v-7.484h1.105v2.4h7.72v1.009h-7.72v3.932c0,1.224.582,1.663,1.912,1.663h6.058v1.01Zm5.036-8.077a1.425,1.425,0,1,1,1.425-1.425A1.433,1.433,0,0,1,258.455,1831.793Zm0-2.168a.743.743,0,1,0,.756.743A.733.733,0,0,0,258.456,1829.625Z" fill="#fff"/>
            <path id="パス_297" data-name="パス 297" d="M263.849,1840.072v-1.034a9.241,9.241,0,0,0,5.975-3.326,35.852,35.852,0,0,0-4.764-1.239v-1.033a42.429,42.429,0,0,1,5.345,1.358,10.234,10.234,0,0,0,1.093-3.623h-5.666a8.551,8.551,0,0,1-3.527,3.789v-1.176a7.444,7.444,0,0,0,2.779-3.635h7.626v.1C272.377,1835.154,270.168,1839.086,263.849,1840.072Z" fill="#fff"/>
            <path id="パス_298" data-name="パス 298" d="M274.231,1840.262v-1.307c.724-.843,1.805-2.174,1.805-6.022v-2.875h1.057v2.839C277.093,1837.4,275.68,1839.145,274.231,1840.262Zm4.751-.274v-9.942h1.057v8.588c2.269-.677,3.409-2.684,3.73-5.559h1.081C284.446,1837.09,282.676,1839.418,278.982,1839.988Z" fill="#fff"/>
          </g>
        </g>
      </g>
      <g id="グループ_188" data-name="グループ 188">
        <rect id="長方形_79" data-name="長方形 79" width="0.819" height="2.452" transform="translate(182.878 1828.676)" fill="#fff"/>
        <path id="パス_299" data-name="パス 299" d="M181.467,1830.248h-7.148a7,7,0,0,1-2.721,3.825v1.164a7.563,7.563,0,0,0,3.54-3.955h5.334c-.523,4.49-2.946,7.15-7.21,7.744v1.034c4.808-.569,7.815-3.526,8.367-8.932h.657v-2.452h-.819Z" fill="#fff"/>
      </g>
    </g>
  </g>
</svg>
