<svg xmlns="http://www.w3.org/2000/svg" width="385.591" height="74.59" viewBox="0 0 385.591 74.59">
  <g id="グループ_573" data-name="グループ 573" transform="translate(-50 -28.945)">
    <path id="パス_185" data-name="パス 185" d="M156.5,47.677c-9.229,11.013-7.056,33.689,15.124,26.3,1.551-4.653.386-10.086-10.394-10.707l22.646-7.91-4.506,24.338c-17.956,9.594-32.831,2.113-35.647-9.836C141.878,62.013,145.065,51.826,156.5,47.677Z" transform="translate(-93.236)" fill="#888"/>
    <path id="パス_186" data-name="パス 186" d="M188.05,28.945,165.819,41.4c-7.4,4.808-9.709,12.205-10.634,15.811l19.92-8.021C181.762,46.236,186.756,40.041,188.05,28.945Z" transform="translate(-93.236)" fill="#f08c00"/>
    <path id="パス_187" data-name="パス 187" d="M222.766,49.767c-19.8-9.594-36.128,1.233-36.128,15.83a18.594,18.594,0,0,0,18.569,18.569c7.512.028,10.768-1.251,15.654-4.043l1.729-9.055a21.045,21.045,0,0,1-13.58,5.268c-7.923,0-14.212-5.1-13.575-12.993.662-8.207,10.96-13.224,22.754-7.59Z" transform="translate(-93.236)" fill="#888"/>
    <path id="パス_188" data-name="パス 188" d="M147.927,92a3.086,3.086,0,0,0-1.216-.25A1.606,1.606,0,0,0,145,93.457a1.554,1.554,0,0,0,1.6,1.682,2.588,2.588,0,0,0,.621-.067v-1.23h-1V93.1h1.9v2.54a5.953,5.953,0,0,1-1.526.243c-1.527,0-2.588-.763-2.588-2.358A2.339,2.339,0,0,1,146.6,91a4.647,4.647,0,0,1,1.385.2Z" transform="translate(-93.236)" fill="#888"/>
    <path id="パス_189" data-name="パス 189" d="M149.208,91.085h1.02c1.014,0,2.223-.033,2.223,1.277a1.079,1.079,0,0,1-.973,1.1v.013c.257.021.406.277.5.487l.757,1.844h-1.054l-.568-1.473c-.135-.351-.257-.486-.655-.486h-.3V95.8h-.946Zm.946,2.014h.311c.466,0,1-.068,1-.656,0-.567-.528-.614-1-.614h-.311Z" transform="translate(-93.236)" fill="#888"/>
    <path id="パス_190" data-name="パス 190" d="M155.665,91a2.443,2.443,0,1,1-2.311,2.426A2.207,2.207,0,0,1,155.665,91Zm0,4.135c.966,0,1.324-.858,1.324-1.709,0-.831-.385-1.682-1.324-1.682s-1.324.851-1.324,1.682C154.341,94.281,154.7,95.139,155.665,95.139Z" transform="translate(-93.236)" fill="#888"/>
    <path id="パス_191" data-name="パス 191" d="M158.527,91.085h.993l.878,3.77h.014l.8-3.77H162.5l.832,3.77h.013l.885-3.77h.919l-1.23,4.716H162.7l-.851-3.77h-.014L161,95.8h-1.222Z" transform="translate(-93.236)" fill="#888"/>
    <path id="パス_192" data-name="パス 192" d="M166.786,91.829h-1.351v-.744h3.648v.744h-1.351V95.8h-.946Z" transform="translate(-93.236)" fill="#888"/>
    <path id="パス_193" data-name="パス 193" d="M169.852,91.085h.946v1.906h1.891V91.085h.946V95.8h-.946V93.734H170.8V95.8h-.946Z" transform="translate(-93.236)" fill="#888"/>
    <path id="パス_194" data-name="パス 194" d="M180.374,95.734a4.842,4.842,0,0,1-1.074.148c-1.527,0-2.588-.763-2.588-2.358A2.339,2.339,0,0,1,179.3,91a3.113,3.113,0,0,1,1.067.2l-.067.8a1.943,1.943,0,0,0-1.02-.25,1.575,1.575,0,0,0-1.581,1.709,1.553,1.553,0,0,0,1.6,1.682,2.633,2.633,0,0,0,1.034-.2Z" transform="translate(-93.236)" fill="#888"/>
    <path id="パス_195" data-name="パス 195" d="M182.588,91.085h1.068l1.851,4.716H184.46l-.406-1.081h-1.912L181.73,95.8h-.98Zm.52.946H183.1l-.683,1.946h1.379Z" transform="translate(-93.236)" fill="#888"/>
    <path id="パス_196" data-name="パス 196" d="M186.2,91.085h1.2c1.027,0,1.966.3,1.966,1.426,0,1.1-.8,1.5-1.817,1.5h-.4V95.8H186.2Zm.946,2.183h.331c.474,0,.9-.156.9-.7s-.412-.736-.9-.736h-.331Z" transform="translate(-93.236)" fill="#888"/>
    <path id="パス_197" data-name="パス 197" d="M190.124,91.085h.946V95.8h-.946Z" transform="translate(-93.236)" fill="#888"/>
    <path id="パス_198" data-name="パス 198" d="M193.109,91.829h-1.351v-.744h3.648v.744h-1.351V95.8h-.946Z" transform="translate(-93.236)" fill="#888"/>
    <path id="パス_199" data-name="パス 199" d="M197.526,91.085h1.067l1.851,4.716H199.4l-.4-1.081H197.08l-.412,1.081h-.98Zm.52.946h-.013l-.683,1.946h1.379Z" transform="translate(-93.236)" fill="#888"/>
    <path id="パス_200" data-name="パス 200" d="M201.219,91.085h.946v3.973H204V95.8h-2.777Z" transform="translate(-93.236)" fill="#888"/>
    <path id="パス_201" data-name="パス 201" d="M175.289,99.894a1.742,1.742,0,0,1,1.824,1.844,1.821,1.821,0,0,1-3.641,0A1.741,1.741,0,0,1,175.289,99.894Zm0,2.939c.7,0,.878-.622.878-1.2a.887.887,0,1,0-1.749,0C174.418,102.205,174.6,102.833,175.289,102.833Z" transform="translate(-93.236)" fill="#888"/>
    <path id="パス_202" data-name="パス 202" d="M178.32,100.637h-.668v-.662h.668v-.487a1.064,1.064,0,0,1,1.109-1.182,3.167,3.167,0,0,1,.662.075l-.075.749a.7.7,0,0,0-.391-.121c-.3,0-.4.263-.4.534v.432h.79v.662h-.79v2.817h-.906Z" transform="translate(-93.236)" fill="#888"/>
    <path id="パス_203" data-name="パス 203" d="M182.513,102.63a1.244,1.244,0,0,0,.453.081c.615,0,.615-.493.615-.831V98.739h.946v3.594a1.187,1.187,0,0,1-1.29,1.2,2.672,2.672,0,0,1-.724-.088Z" transform="translate(-93.236)" fill="#888"/>
    <path id="パス_204" data-name="パス 204" d="M187.059,98.739h1.068l1.851,4.715h-1.047l-.406-1.081h-1.912l-.412,1.081h-.98Zm.52.945h-.013l-.683,1.946h1.379Z" transform="translate(-93.236)" fill="#888"/>
    <path id="パス_205" data-name="パス 205" d="M190.671,98.739h1.2c1.027,0,1.966.3,1.966,1.425,0,1.1-.8,1.5-1.817,1.5h-.4v1.79h-.946Zm.946,2.182h.331c.473,0,.9-.156.9-.7s-.412-.736-.9-.736h-.331Z" transform="translate(-93.236)" fill="#888"/>
    <path id="パス_206" data-name="パス 206" d="M196.027,98.739H197.1l1.851,4.715H197.9l-.406-1.081h-1.912l-.412,1.081h-.98Zm.52.945h-.013l-.683,1.946h1.379Z" transform="translate(-93.236)" fill="#888"/>
    <path id="パス_207" data-name="パス 207" d="M199.673,98.739h1.162l1.8,3.526h.014V98.739h.9v4.715H202.4l-1.8-3.526h-.014v3.526h-.9Z" transform="translate(-93.236)" fill="#888"/>
    <path id="パス_208" data-name="パス 208" d="M233.252,47.351l-6.6,34.843c-2.024,12.322-10.914,13.555-15.667,14.171l-1.07,7.04c14.541,0,23.033-8.725,25.011-18.031l7.569-38.023Z" transform="translate(-93.236)" fill="#f08c00"/>
    <g id="グループ_162" data-name="グループ 162" transform="translate(-93.236)">
      <g id="グループ_161" data-name="グループ 161">
        <path id="パス_209" data-name="パス 209" d="M282,57.039V76.494H264.77V57.039Zm-15.259,8.684h13.264V58.876H266.744Zm0,1.815V74.68h13.264V67.538Z" fill="#595757"/>
        <path id="パス_210" data-name="パス 210" d="M296.9,60.032V55.951h1.859v4.081h9.614v1.792h-8.616a22.106,22.106,0,0,0,8.843,9.591l-1.089,1.836c-4.874-3.582-6.983-6.507-8.752-10.158v8.118h4.785v1.723h-4.785v4.059H296.9V72.934h-4.739V71.211H296.9V63.184a26.038,26.038,0,0,1-8.684,10.135l-1.134-1.791a22.552,22.552,0,0,0,8.82-9.7h-8.548V60.032Z" fill="#595757"/>
        <path id="パス_211" data-name="パス 211" d="M338.422,75.36V57.991H356.2V75.36ZM354.135,59.9h-13.65V73.433h13.65Z" fill="#595757"/>
        <path id="パス_212" data-name="パス 212" d="M360.281,66.426v-2h19.432v2Z" fill="#595757"/>
        <path id="パス_213" data-name="パス 213" d="M392.8,68.49a24.079,24.079,0,0,1-11.315,7.641V74.045a21.433,21.433,0,0,0,13.583-14.308H382.548V57.765h15.169a23.693,23.693,0,0,1-3.514,8.82,19.333,19.333,0,0,0,6.689,7.483V76.4A20.89,20.89,0,0,1,392.8,68.49Z" fill="#595757"/>
        <path id="パス_214" data-name="パス 214" d="M408.647,66.472a1.927,1.927,0,1,1-1.927-1.928A1.925,1.925,0,0,1,408.647,66.472Z" fill="#595757"/>
        <path id="パス_215" data-name="パス 215" d="M426.379,69.895l.635,6.735h-2.131l-.612-6.735h-9.75V67.946h9.568l-.476-5.578H415.4V60.44h8.027l-.385-4.081h2.108l.385,4.081h8.707v1.928h-8.525l.5,5.578h9.025v1.949Z" fill="#595757"/>
        <path id="パス_216" data-name="パス 216" d="M449.123,71.551V69.669a8.871,8.871,0,0,0,5.691-6.009L445,64.045l2.289,12.675h-1.972l-2.268-12.607-4.24.159V62.481l3.9-.136-.59-3.333h1.973l.567,3.265L457.2,61.8A11.236,11.236,0,0,1,449.123,71.551Z" fill="#595757"/>
        <path id="パス_217" data-name="パス 217" d="M468.828,75.95c-3.559,0-5.441-1.247-5.441-4.83V56.835H465.5v4.58h14.737v1.927H465.5v7.506c0,2.335,1.11,3.174,3.65,3.174H480.71V75.95Zm9.614-15.419a2.72,2.72,0,1,1,2.721-2.72A2.734,2.734,0,0,1,478.442,60.531Zm0-4.139a1.419,1.419,0,1,0,1.443,1.42A1.4,1.4,0,0,0,478.443,56.392Z" fill="#595757"/>
        <path id="パス_218" data-name="パス 218" d="M488.738,76.335V74.362c5.51-1.088,9.138-3.287,11.406-6.349a68.419,68.419,0,0,0-9.094-2.365V63.675a81.335,81.335,0,0,1,10.2,2.592,19.526,19.526,0,0,0,2.086-6.915H492.525a16.329,16.329,0,0,1-6.734,7.233V64.341A14.217,14.217,0,0,0,491.1,57.4h14.557v.181C505.018,66.948,500.8,74.453,488.738,76.335Z" fill="#595757"/>
        <path id="パス_219" data-name="パス 219" d="M508.557,76.7V74.2c1.383-1.609,3.446-4.149,3.446-11.5V57.22h2.018v5.42C514.021,71.233,511.323,74.566,508.557,76.7Zm9.069-.522V57.2h2.018V73.591c4.331-1.292,6.508-5.124,7.12-10.611h2.063C528.056,70.644,524.678,75.088,517.626,76.176Z" fill="#595757"/>
      </g>
    </g>
    <rect id="長方形_45" data-name="長方形 45" width="1.564" height="4.681" transform="translate(240.934 54.581)" fill="#595757"/>
    <path id="パス_220" data-name="パス 220" d="M331.477,57.583H317.832a13.357,13.357,0,0,1-5.193,7.3v2.223a14.432,14.432,0,0,0,6.757-7.551h10.181c-1,8.571-5.623,13.65-13.763,14.784v1.973c9.179-1.085,14.918-6.731,15.972-17.052h1.255v-4.68h-1.564Z" transform="translate(-93.236)" fill="#595757"/>
    <g id="グループ_170" data-name="グループ 170" transform="translate(-93.236)">
      <g id="グループ_169" data-name="グループ 169">
        <path id="パス_247" data-name="パス 247" d="M282,57.039V76.494H264.77V57.039Zm-15.259,8.684h13.264V58.876H266.744Zm0,1.815V74.68h13.264V67.538Z" fill="#595757"/>
        <path id="パス_248" data-name="パス 248" d="M296.9,60.032V55.951h1.859v4.081h9.614v1.792h-8.616a22.106,22.106,0,0,0,8.843,9.591l-1.089,1.836c-4.874-3.582-6.983-6.507-8.752-10.158v8.118h4.785v1.723h-4.785v4.059H296.9V72.934h-4.739V71.211H296.9V63.184a26.038,26.038,0,0,1-8.684,10.135l-1.134-1.791a22.552,22.552,0,0,0,8.82-9.7h-8.548V60.032Z" fill="#595757"/>
        <path id="パス_249" data-name="パス 249" d="M338.422,75.36V57.991H356.2V75.36ZM354.135,59.9h-13.65V73.433h13.65Z" fill="#595757"/>
        <path id="パス_250" data-name="パス 250" d="M360.281,66.426v-2h19.432v2Z" fill="#595757"/>
        <path id="パス_251" data-name="パス 251" d="M392.8,68.49a24.079,24.079,0,0,1-11.315,7.641V74.045a21.433,21.433,0,0,0,13.583-14.308H382.548V57.765h15.169a23.693,23.693,0,0,1-3.514,8.82,19.333,19.333,0,0,0,6.689,7.483V76.4A20.89,20.89,0,0,1,392.8,68.49Z" fill="#595757"/>
        <path id="パス_252" data-name="パス 252" d="M408.647,66.472a1.927,1.927,0,1,1-1.927-1.928A1.925,1.925,0,0,1,408.647,66.472Z" fill="#595757"/>
        <path id="パス_253" data-name="パス 253" d="M426.379,69.895l.635,6.735h-2.131l-.612-6.735h-9.75V67.946h9.568l-.476-5.578H415.4V60.44h8.027l-.385-4.081h2.108l.385,4.081h8.707v1.928h-8.525l.5,5.578h9.025v1.949Z" fill="#595757"/>
        <path id="パス_254" data-name="パス 254" d="M449.123,71.551V69.669a8.871,8.871,0,0,0,5.691-6.009L445,64.045l2.289,12.675h-1.972l-2.268-12.607-4.24.159V62.481l3.9-.136-.59-3.333h1.973l.567,3.265L457.2,61.8A11.236,11.236,0,0,1,449.123,71.551Z" fill="#595757"/>
        <path id="パス_255" data-name="パス 255" d="M468.828,75.95c-3.559,0-5.441-1.247-5.441-4.83V56.835H465.5v4.58h14.737v1.927H465.5v7.506c0,2.335,1.11,3.174,3.65,3.174H480.71V75.95Zm9.614-15.419a2.72,2.72,0,1,1,2.721-2.72A2.734,2.734,0,0,1,478.442,60.531Zm0-4.139a1.419,1.419,0,1,0,1.443,1.42A1.4,1.4,0,0,0,478.443,56.392Z" fill="#595757"/>
        <path id="パス_256" data-name="パス 256" d="M488.738,76.335V74.362c5.51-1.088,9.138-3.287,11.406-6.349a68.419,68.419,0,0,0-9.094-2.365V63.675a81.335,81.335,0,0,1,10.2,2.592,19.526,19.526,0,0,0,2.086-6.915H492.525a16.329,16.329,0,0,1-6.734,7.233V64.341A14.217,14.217,0,0,0,491.1,57.4h14.557v.181C505.018,66.948,500.8,74.453,488.738,76.335Z" fill="#595757"/>
        <path id="パス_257" data-name="パス 257" d="M508.557,76.7V74.2c1.383-1.609,3.446-4.149,3.446-11.5V57.22h2.018v5.42C514.021,71.233,511.323,74.566,508.557,76.7Zm9.069-.522V57.2h2.018V73.591c4.331-1.292,6.508-5.124,7.12-10.611h2.063C528.056,70.644,524.678,75.088,517.626,76.176Z" fill="#595757"/>
      </g>
    </g>
    <rect id="長方形_59" data-name="長方形 59" width="1.564" height="4.681" transform="translate(240.934 54.581)" fill="#595757"/>
    <path id="パス_258" data-name="パス 258" d="M331.477,57.583H317.832a13.357,13.357,0,0,1-5.193,7.3v2.223a14.432,14.432,0,0,0,6.757-7.551h10.181c-1,8.571-5.623,13.65-13.763,14.784v1.973c9.179-1.085,14.918-6.731,15.972-17.052h1.255v-4.68h-1.564Z" transform="translate(-93.236)" fill="#595757"/>
  </g>
</svg>
