<svg id="グループ_847" data-name="グループ 847" xmlns="http://www.w3.org/2000/svg" width="288.082" height="55.71" viewBox="0 0 288.082 55.71">
  <g id="グループ_841" data-name="グループ 841">
    <path id="パス_814" data-name="パス 814" d="M21.345,25.843c-6.893,8.226-5.27,25.162,11.3,19.639,1.159-3.475.289-7.533-7.763-8l16.913-5.908L38.426,49.756C25.015,56.921,13.905,51.333,11.8,42.409,10.42,36.55,12.8,28.943,21.345,25.843Z" transform="translate(-11.435 -11.853)" fill="#888b8d"/>
    <path id="パス_815" data-name="パス 815" d="M44.847,11.946l-16.6,9.3c-5.525,3.592-7.251,9.117-7.942,11.81L35.179,27.07C40.151,24.86,43.881,20.233,44.847,11.946Z" transform="translate(-11.376 -11.946)" fill="#ed8b00"/>
    <path id="パス_816" data-name="パス 816" d="M70.62,27.412c-14.791-7.166-26.984.92-26.984,11.824A13.887,13.887,0,0,0,57.505,53.1c5.611.021,8.042-.934,11.692-3.019l1.293-6.764a15.721,15.721,0,0,1-10.143,3.935c-5.917,0-10.614-3.806-10.139-9.7.494-6.129,8.186-9.877,16.995-5.669Z" transform="translate(-11.22 -11.861)" fill="#888b8d"/>
    <g id="グループ_840" data-name="グループ 840" transform="translate(0.582 46.351)">
      <path id="パス_817" data-name="パス 817" d="M14.934,58.731a2.305,2.305,0,0,0-.908-.186A1.2,1.2,0,0,0,12.75,59.82a1.161,1.161,0,0,0,1.2,1.257,1.91,1.91,0,0,0,.464-.05v-.919h-.747v-.555h1.423v1.9a4.455,4.455,0,0,1-1.141.181,1.691,1.691,0,0,1-1.933-1.761,1.747,1.747,0,0,1,1.933-1.883,3.489,3.489,0,0,1,1.035.146Z" transform="translate(-12.013 -57.989)" fill="#888b8d"/>
      <path id="パス_818" data-name="パス 818" d="M15.866,58.049h.762c.757,0,1.66-.025,1.66.954a.8.8,0,0,1-.727.816v.011c.192.015.3.206.373.362l.566,1.378h-.787l-.424-1.1c-.1-.263-.192-.363-.489-.363h-.228v1.464h-.707Zm.707,1.5H16.8c.349,0,.747-.05.747-.489,0-.424-.394-.459-.747-.459h-.232Z" transform="translate(-11.987 -57.989)" fill="#888b8d"/>
      <path id="パス_819" data-name="パス 819" d="M20.668,57.989A1.824,1.824,0,1,1,18.942,59.8,1.648,1.648,0,0,1,20.668,57.989Zm0,3.089c.721,0,.989-.641.989-1.276s-.288-1.256-.989-1.256-.99.635-.99,1.256S19.947,61.078,20.668,61.078Z" transform="translate(-11.967 -57.989)" fill="#888b8d"/>
      <path id="パス_820" data-name="パス 820" d="M22.78,58.049h.742l.655,2.816h.011l.6-2.816h.958l.621,2.816h.01l.661-2.816h.686l-.918,3.522H25.9l-.636-2.816h-.01l-.626,2.816h-.913Z" transform="translate(-11.941 -57.989)" fill="#888b8d"/>
      <path id="パス_821" data-name="パス 821" d="M28.915,58.6h-1.01v-.556H30.63V58.6H29.621v2.967h-.707Z" transform="translate(-11.907 -57.989)" fill="#888b8d"/>
      <path id="パス_822" data-name="パス 822" d="M31.183,58.049h.706v1.423H33.3V58.049h.707v3.522H33.3V60.027H31.889v1.544h-.706Z" transform="translate(-11.885 -57.989)" fill="#888b8d"/>
      <path id="パス_823" data-name="パス 823" d="M39.007,61.521a3.576,3.576,0,0,1-.8.111,1.691,1.691,0,0,1-1.933-1.761A1.747,1.747,0,0,1,38.2,57.989a2.328,2.328,0,0,1,.8.146l-.05.6a1.448,1.448,0,0,0-.762-.186,1.177,1.177,0,0,0-1.181,1.275,1.161,1.161,0,0,0,1.2,1.257,1.966,1.966,0,0,0,.772-.147Z" transform="translate(-11.851 -57.989)" fill="#888b8d"/>
      <path id="パス_824" data-name="パス 824" d="M40.641,58.049h.8l1.382,3.522h-.782l-.3-.807H40.308L40,61.571h-.732Zm.389.707h-.01l-.51,1.453h1.03Z" transform="translate(-11.831 -57.989)" fill="#888b8d"/>
      <path id="パス_825" data-name="パス 825" d="M43.312,58.049H44.2c.767,0,1.468.222,1.468,1.065,0,.822-.6,1.12-1.357,1.12h-.3v1.337h-.707Zm.707,1.63h.247c.353,0,.671-.116.671-.524s-.308-.55-.671-.55h-.247Z" transform="translate(-11.804 -57.989)" fill="#888b8d"/>
      <path id="パス_826" data-name="パス 826" d="M46.223,58.049h.707v3.522h-.707Z" transform="translate(-11.784 -57.989)" fill="#888b8d"/>
      <path id="パス_827" data-name="パス 827" d="M48.445,58.6h-1.01v-.556H50.16V58.6H49.15v2.967h-.706Z" transform="translate(-11.776 -57.989)" fill="#888b8d"/>
      <path id="パス_828" data-name="パス 828" d="M51.723,58.049h.8L53.9,61.571h-.782l-.3-.807H51.391l-.308.807h-.732Zm.389.707H52.1l-.509,1.453h1.03Z" transform="translate(-11.757 -57.989)" fill="#888b8d"/>
      <path id="パス_829" data-name="パス 829" d="M54.455,58.049h.706v2.967h1.368v.556H54.455Z" transform="translate(-11.729 -57.989)" fill="#888b8d"/>
      <path id="パス_830" data-name="パス 830" d="M35.226,64.584a1.3,1.3,0,0,1,1.362,1.378,1.36,1.36,0,0,1-2.72,0A1.3,1.3,0,0,1,35.226,64.584Zm0,2.2c.519,0,.655-.464.655-.9a.662.662,0,1,0-1.307,0C34.575,66.31,34.711,66.78,35.226,66.78Z" transform="translate(-11.867 -57.945)" fill="#888b8d"/>
      <path id="パス_831" data-name="パス 831" d="M37.468,65.148h-.5v-.494h.5V64.29a.8.8,0,0,1,.829-.884,2.394,2.394,0,0,1,.494.056l-.055.56a.53.53,0,0,0-.293-.091c-.228,0-.3.2-.3.4v.323h.591v.494h-.591v2.1h-.676Z" transform="translate(-11.846 -57.953)" fill="#888b8d"/>
      <path id="パス_832" data-name="パス 832" d="M40.576,66.633a.906.906,0,0,0,.338.061c.46,0,.46-.368.46-.621V63.727h.706v2.685a.887.887,0,0,1-.963.9,2.016,2.016,0,0,1-.541-.065Z" transform="translate(-11.822 -57.951)" fill="#888b8d"/>
      <path id="パス_833" data-name="パス 833" d="M43.958,63.727h.8l1.382,3.522h-.782l-.3-.807H43.625l-.308.807h-.731Zm.389.707h-.01l-.51,1.454h1.03Z" transform="translate(-11.809 -57.951)" fill="#888b8d"/>
      <path id="パス_834" data-name="パス 834" d="M46.629,63.727h.893c.767,0,1.469.222,1.469,1.065,0,.822-.6,1.12-1.358,1.12h-.3v1.337h-.707Zm.707,1.63h.247c.353,0,.671-.116.671-.524s-.308-.55-.671-.55h-.247Z" transform="translate(-11.782 -57.951)" fill="#888b8d"/>
      <path id="パス_835" data-name="パス 835" d="M50.612,63.727h.8l1.382,3.522h-.782l-.3-.807H50.279l-.308.807h-.732Zm.389.707h-.01l-.51,1.454h1.03Z" transform="translate(-11.764 -57.951)" fill="#888b8d"/>
      <path id="パス_836" data-name="パス 836" d="M53.308,63.727h.868l1.342,2.634h.01V63.727H56.2v3.522h-.863l-1.348-2.634h-.01v2.634h-.675Z" transform="translate(-11.737 -57.951)" fill="#888b8d"/>
    </g>
    <path id="パス_837" data-name="パス 837" d="M78.337,25.6,73.406,51.625c-1.512,9.2-8.151,10.124-11.7,10.584l-.8,5.259c10.861,0,17.2-6.517,18.681-13.467L85.24,25.6Z" transform="translate(-11.104 -11.855)" fill="#ed8b00"/>
  </g>
  <g id="グループ_846" data-name="グループ 846" transform="translate(90.862 19.177)">
    <g id="グループ_844" data-name="グループ 844" transform="translate(0 0.381)">
      <g id="グループ_843" data-name="グループ 843">
        <g id="グループ_842" data-name="グループ 842">
          <path id="パス_838" data-name="パス 838" d="M114.563,32.82V47.349h-12.87V32.82Zm-11.4,6.486h9.906V34.191h-9.906Zm0,1.355V46h9.906V40.661Z" transform="translate(-101.693 -31.364)" fill="#595757"/>
          <path id="パス_839" data-name="パス 839" d="M125.581,35.06V32.012h1.388V35.06h7.181V36.4h-6.435a16.5,16.5,0,0,0,6.6,7.164l-.012,1.809a19.675,19.675,0,0,1-7.339-8.024V43.41h3.574V44.7h-3.574v3.032h-1.388V44.7h-3.54V43.41h3.54V37.415a18.134,18.134,0,0,1-7.251,7.956l-.083-1.724a16.836,16.836,0,0,0,6.589-7.248h-6.384V35.06Z" transform="translate(-101.582 -31.37)" fill="#595757"/>
          <path id="パス_840" data-name="パス 840" d="M156.337,46.5V33.526h13.277V46.5Zm11.736-11.55H157.878V45.06h10.195Z" transform="translate(-101.328 -31.36)" fill="#595757"/>
          <path id="パス_841" data-name="パス 841" d="M172.555,39.794V38.3h14.513v1.49Z" transform="translate(-101.219 -31.328)" fill="#595757"/>
          <path id="パス_842" data-name="パス 842" d="M196.735,41.368a17.979,17.979,0,0,1-8.451,5.707V45.518a16.008,16.008,0,0,0,10.145-10.687H189.08V33.358h11.33a17.7,17.7,0,0,1-2.625,6.588,14.46,14.46,0,0,0,5,5.589v1.744A15.6,15.6,0,0,1,196.735,41.368Z" transform="translate(-101.114 -31.361)" fill="#595757"/>
          <path id="パス_843" data-name="パス 843" d="M208.458,39.828a1.44,1.44,0,1,1-1.44-1.44A1.439,1.439,0,0,1,208.458,39.828Z" transform="translate(-100.998 -31.327)" fill="#595757"/>
          <path id="パス_844" data-name="パス 844" d="M221.654,42.425l.474,5.03h-1.592l-.458-5.03H212.8V40.968h7.146l-.355-4.166h-6.131v-1.44h5.995l-.288-3.048h1.575l.287,3.048h6.5V36.8h-6.367l.372,4.166h6.741v1.457Z" transform="translate(-100.95 -31.368)" fill="#595757"/>
          <path id="パス_845" data-name="パス 845" d="M238.52,43.648V42.243a6.629,6.629,0,0,0,4.251-4.488l-7.333.288,1.709,9.467h-1.473l-1.694-9.417-3.166.119V36.874l2.912-.1-.441-2.49h1.475l.423,2.438,9.365-.355A8.39,8.39,0,0,1,238.52,43.648Z" transform="translate(-100.83 -31.355)" fill="#595757"/>
          <path id="パス_846" data-name="パス 846" d="M253.116,46.953c-2.659,0-4.064-.932-4.064-3.607V32.677h1.574V36.1h11.008v1.44H250.626v5.606c0,1.744.83,2.371,2.727,2.371h8.636v1.44ZM260.3,35.437a2.031,2.031,0,1,1,2.031-2.031A2.041,2.041,0,0,1,260.3,35.437Zm0-3.091a1.06,1.06,0,1,0,1.078,1.06A1.045,1.045,0,0,0,260.3,32.346Z" transform="translate(-100.708 -31.374)" fill="#595757"/>
          <path id="パス_847" data-name="パス 847" d="M267.876,47.23V45.756c4.115-.812,6.824-2.455,8.519-4.741a50.865,50.865,0,0,0-6.792-1.767V37.774a60.812,60.812,0,0,1,7.622,1.936,14.62,14.62,0,0,0,1.557-5.165H270.7a12.19,12.19,0,0,1-5.029,5.4V38.271a10.616,10.616,0,0,0,3.962-5.182h10.872v.135C280.034,40.218,276.885,45.825,267.876,47.23Z" transform="translate(-100.597 -31.363)" fill="#595757"/>
          <path id="パス_848" data-name="パス 848" d="M282.564,47.5V45.638c1.034-1.2,2.574-3.1,2.574-8.586v-4.1h1.507V37C286.645,43.421,284.631,45.909,282.564,47.5Zm6.774-.39V32.937h1.507V45.181c3.235-.965,4.861-3.827,5.318-7.926H297.7C297.129,42.98,294.606,46.3,289.338,47.112Z" transform="translate(-100.484 -31.364)" fill="#595757"/>
        </g>
      </g>
    </g>
    <g id="グループ_845" data-name="グループ 845" transform="translate(35.752)">
      <rect id="長方形_358" data-name="長方形 358" width="1.168" height="3.496" transform="translate(16.081)" fill="#595757"/>
      <path id="パス_849" data-name="パス 849" d="M151.277,33.238H141.086a9.974,9.974,0,0,1-3.878,5.453v1.66a10.784,10.784,0,0,0,5.047-5.639h7.6c-.745,6.4-4.2,10.195-10.279,11.041v1.474c6.856-.81,11.143-5.027,11.93-12.736h.937V31h-1.169Z" transform="translate(-137.208 -30.996)" fill="#595757"/>
    </g>
  </g>
</svg>
